# AST/ASF file generated using VICON BodyLanguage
# -----------------------------------------------
:version 1.10
:name VICON
:units
  mass 1.0
  length 0.45
  angle deg
:documentation
   .ast/.asf automatically generated from VICON data using
   VICON BodyBuilder and BodyLanguage model FoxedUp or BRILLIANT.MOD
:root
   order TX TY TZ RX RY RZ
   axis XYZ
   position 0 0 0  
   orientation 0 0 0 
:bonedata
  begin
     id 1 
     name lhipjoint
     direction 0.627457 -0.725269 0.283342 
     length 2.53237 
     axis 0 0 0  XYZ
  end
  begin
     id 2 
     name lfemur
     direction 0.34202 -0.939693 0  
     length 7.32496  
     axis 0 0 20  XYZ
    dof rx ry rz
    limits (-160.0 20.0)
           (-70.0 70.0)
           (-60.0 70.0)
  end
  begin
     id 3 
     name ltibia
     direction 0.34202 -0.939693 0   
     length 7.69674   
     axis 0 0 20   XYZ
    dof rx
    limits (-10.0 170.0)
  end
  begin
     id 4 
     name lfoot
     direction 0.127289 -0.349722 0.928166   
     length 1.8612   
     axis -90 7.62852e-016 20   XYZ
    dof rx rz
    limits (-45.0 90.0)
           (-70.0 20.0)
  end
  begin
     id 5 
     name ltoes
     direction 1.53561e-011 -4.21864e-011 1   
     length 0.925608   
     axis -90 7.62852e-016 20   XYZ
    dof rx
    limits (-90.0 20.0)
  end
  begin
     id 6 
     name rhipjoint
     direction -0.609094 -0.738725 0.288599   
     length 2.48624  
     axis 0 0 0  XYZ 
  end
  begin
     id 7 
     name rfemur
     direction -0.34202 -0.939693 0   
     length 7.44259   
     axis 0 0 -20   XYZ
    dof rx ry rz
    limits (-160.0 20.0)
           (-70.0 70.0)
           (-70.0 60.0)
  end
  begin
     id 8 
     name rtibia
     direction -0.34202 -0.939693 0   
     length 7.7781   
     axis 0 0 -20   XYZ
    dof rx
    limits (-10.0 170.0)
 end
 begin
     id 9 
     name rfoot
     direction -0.107015 -0.294021 0.949789   
     length 2.14741  
     axis -90 -7.62852e-016 -20   XYZ
    dof rx rz
    limits (-45.0 90.0)
           (-20.0 70.0)
  end
  begin
     id 10 
     name rtoes
     direction -1.53497e-011 -4.21924e-011 1   
     length 1.0706   
     axis -90 -7.62852e-016 -20   XYZ
    dof rx
    limits (-90.0 20.0)
  end
  begin
     id 11 
     name lowerback
     direction -0.0142066 0.998112 -0.0597545   
     length 1.86627   
     axis 0 0 0   XYZ
    dof rx ry rz
    limits (-20.0 45.0)
           (-30.0 30.0)
           (-30.0 30.0)
  end
  begin
     id 12 
     name upperback
     direction 0.00547294 0.999744 0.0219437   
     length 1.86272   
     axis 0 0 0   XYZ
    dof rx ry rz
    limits (-20.0 45.0)
           (-30.0 30.0)
           (-30.0 30.0)
  end
  begin
     id 13 
     name thorax
     direction 0.0116162 0.998704 0.0495538   
     length 1.8703   
     axis 0 0 0   XYZ
    dof rx ry rz
    limits (-20.0 45.0)
           (-30.0 30.0)
           (-30.0 30.0)
  end
  begin
     id 14 
     name lowerneck
     direction -0.0106574 0.998739 0.0490586   
     length 1.8074   
     axis 0 0 0   XYZ
    dof rx ry rz
    limits (-20.0 45.0)
           (-30.0 30.0)
           (-30.0 30.0)
  end
  begin
     id 15 
     name upperneck
     direction 0.030527 0.976587 -0.212944   
     length 1.80681   
     axis 0 0 0   XYZ
    dof rx ry rz
    limits (-20.0 45.0)
           (-30.0 30.0)
           (-30.0 30.0)
  end
  begin
     id 16
     name head
     direction 0.00869225 0.997035 -0.0764531  
     length 1.8313  
     axis 0 0 0   XYZ
    dof rx ry rz
    limits (-20.0 45.0)
           (-30.0 30.0)
           (-30.0 30.0)
  end
  begin
     id 17 
     name lclavicle
     direction 0.915958 0.399447 0.0382386  
     length 3.78965  
     axis 0 0 0   XYZ
    dof ry rz
    limits (-20.0 10.0)
           (0.0 20.0)
  end
  begin
     id 18 
     name lhumerus
     direction 1 -4.48967e-011 3.19303e-027   
     length 4.78095   
     axis -180 -30 -90   XYZ
    dof rx ry rz
    limits (-60.0 90.0)
           (-90.0 90.0)
           (-90.0 90.0)
  end
  begin
     id 19
     name lradius
     direction 1 -4.48967e-011 -3.77974e-027   
     length 3.58615   
     axis -180 -30 -90   XYZ
    dof rx
    limits (-10.0 170.0)
  end
  begin
     id 20
     name lwrist
     direction 1 -4.48927e-011 1.2807e-027   
     length 1.79307   
     axis 1.91374e-015 90 90   XYZ
    dof ry
    limits (-180.0 0.0)
 end
  begin
     id 21 
     name lhand
     direction 1 -4.49036e-011 2.5614e-027   
     length 0.659812   
     axis -1.63439e-015 90 90   XYZ
    dof rx rz
    limits (-90.0 90.0)
           (-45.0 45.0)
  end
  begin
     id 22 
     name lfingers
     direction 1 -4.49052e-011 5.1228e-027   
     length 0.531957   
     axis -3.26879e-015 90 90   XYZ
    dof rx
    limits (0.0 90.0)
  end
  begin
     id 23
     name lthumb
     direction 0.707107 -6.35012e-011 0.707107   
     length 0.763787   
     axis -90 45 2.85299e-015   XYZ
    dof rx rz
    limits (-45.0 45.0)
           (-45.0 45.0)
  end
  begin
     id 24 
     name rclavicle
     direction -0.895351 0.435135 0.0948887   
     length 3.70497  
     axis 0 0 0   XYZ 
    dof ry rz
    limits (-10.0 20.0)
           (-20.0 0.0)
  end
  begin
     id 25 
     name rhumerus
     direction -1 -4.48971e-011 2.38946e-027  
     length 4.48913   
     axis -180 30 90   XYZ
    dof rx ry rz
    limits (-90.0 60.0)
           (-90.0 90.0)
           (-90.0 90.0)
  end
  begin
     id 26 
     name rradius
     direction -1 -4.4895e-011 4.38668e-027   
     length 3.7051   
     axis -180 30 90   XYZ
    dof rx
    limits (-10.0 170.0)
  end
  begin
     id 27 
     name rwrist
     direction -1 -4.49007e-011 1.2807e-027   
     length 1.85255   
     axis 1.91374e-015 -90 -90   XYZ
    dof ry
    limits (-180.0 0.0)
  end
  begin
     id 28
     name rhand
     direction -1 -4.48851e-011 2.5614e-027   
     length 0.449136   
     axis -1.63439e-015 -90 -90   XYZ
    dof rx rz
    limits (-90.0 90.0)
           (-45.0 45.0)
  end
  begin
     id 29
     name rfingers
     direction -1 -4.49128e-011 5.1228e-027   
     length 0.362105   
     axis -3.26879e-015 -90 -90   XYZ
    dof rx
    limits (0.0 90.0)
  end
  begin
     id 30
     name rthumb
     direction -0.707107 -6.34851e-011 0.707107   
     length 0.519912   
     axis -90 -45 -2.85299e-015   XYZ
    dof rx rz
    limits (-45.0 45.0)
           (-45.0 45.0)
  end
:hierarchy
  begin
    root lhipjoint rhipjoint lowerback
    lhipjoint lfemur
    lfemur ltibia
    ltibia lfoot
    lfoot ltoes
    rhipjoint rfemur
    rfemur rtibia
    rtibia rfoot
    rfoot rtoes
    lowerback upperback
    upperback thorax
    thorax lowerneck lclavicle rclavicle
    lowerneck upperneck
    upperneck head
    lclavicle lhumerus
    lhumerus lradius
    lradius lwrist
    lwrist lhand lthumb
    lhand lfingers
    rclavicle rhumerus
    rhumerus rradius
    rradius rwrist
    rwrist rhand rthumb
    rhand rfingers
  end

#!OML:ASF I:\Actors\actors\Patient Classification 2\Patient 1\Session 1\actor1.ASF
:FULLY-SPECIFIED
:DEGREES
27
root -0.880114 18.6674 5.81063 0.821294 -1.3801 -4.66432
lowerback 7.05109 0.867635 2.35077
upperback -1.91751 1.44146 1.10015
thorax -5.92994 0.646655 -0.347297
lowerneck -12.4168 -2.02983 -1.20551
upperneck 26.4655 -3.37495 2.77832
head 10.6006 -1.34049 0.770103
rclavicle 1.40636e-014 1.15295e-014
rhumerus -48.5778 -5.02675 -84.2378
rradius 42.2139
rwrist 19.1529
rhand -9.93797 -26.2119
rfingers 7.12502
rthumb 16.0434 -55.5677
lclavicle 1.40636e-014 1.15295e-014
lhumerus -43.9088 2.85677 88.1963
lradius 39.4784
lwrist -12.1459
lhand -5.07202 -30.6999
lfingers 7.12502
lthumb 20.7242 -1.78646
rfemur 7.87426 -2.0342 18.8843
rtibia -4.77083e-015
rfoot -15.3059 -9.66795
rtoes -4.40068
lfemur -5.72999 -4.61357 -8.79498
ltibia 24.0977
lfoot -21.4816 10.425
ltoes -56.1827
28
root -0.878488 18.6676 5.81373 0.818978 -1.37053 -4.64544
lowerback 7.13696 0.870037 2.35661
upperback -1.93743 1.44773 1.08438
thorax -5.99929 0.648271 -0.369461
lowerneck -12.4373 -2.02529 -1.22722
upperneck 26.4828 -3.36748 2.79235
head 10.6115 -1.33712 0.779644
rclavicle -9.71162e-015 4.17448e-015
rhumerus -48.6254 -5.02286 -84.2693
rradius 42.3006
rwrist 19.1033
rhand -10.012 -26.1195
rfingers 7.12502
rthumb 15.9721 -55.481
lclavicle -9.71162e-015 4.17448e-015
lhumerus -43.9495 2.77107 88.2217
lradius 39.4973
lwrist -12.0327
lhand -5.05755 -30.652
lfingers 7.12502
lthumb 20.7381 -1.74007
rfemur 7.89097 -2.0436 18.857
rtibia -1.59028e-015
rfoot -15.2912 -9.67629
rtoes -4.55069
lfemur -5.75323 -4.54655 -8.8192
ltibia 24.1399
lfoot -21.4457 10.3867
ltoes -56.1998
29
root -0.877414 18.6681 5.81646 0.838896 -1.35522 -4.65343
lowerback 7.18243 0.864769 2.35577
upperback -1.96214 1.44308 1.08925
thorax -6.05159 0.645346 -0.364364
lowerneck -12.4279 -2.02409 -1.26826
upperneck 26.4825 -3.36843 2.83753
head 10.6112 -1.3364 0.802785
rclavicle -1.33568e-014 -1.72943e-014
rhumerus -48.6853 -4.9959 -84.2886
rradius 42.3836
rwrist 19.059
rhand -10.7086 -26.2965
rfingers 7.12502
rthumb 15.3012 -55.7104
lclavicle -1.33568e-014 -1.72943e-014
lhumerus -43.9868 2.7582 88.23
lradius 39.4923
lwrist -12.034
lhand -5.04194 -30.5779
lfingers 7.12502
lthumb 20.7531 -1.66764
rfemur 7.88102 -2.05913 18.8631
rtibia -4.77083e-015
rfoot -15.2861 -9.6826
rtoes -4.63312
lfemur -5.79981 -4.4705 -8.80881
ltibia 24.1815
lfoot -21.3712 10.3818
ltoes -56.3163
30
root -0.876598 18.6682 5.81816 0.858081 -1.35017 -4.68698
lowerback 7.2141 0.857803 2.3689
upperback -1.9686 1.43783 1.11575
thorax -6.07706 0.642459 -0.344057
lowerneck -12.3805 -2.02216 -1.28071
upperneck 26.4138 -3.3629 2.84625
head 10.5767 -1.33532 0.808987
rclavicle 8.45427e-015 5.36719e-015
rhumerus -48.6864 -4.92755 -84.2969
rradius 42.4272
rwrist 19.0316
rhand -11.8773 -26.7052
rfingers 7.12502
rthumb 14.1753 -56.2016
lclavicle 8.45427e-015 5.36719e-015
lhumerus -43.9694 2.84969 88.2263
lradius 39.4235
lwrist -12.0985
lhand -5.04529 -30.6077
lfingers 7.12502
lthumb 20.7499 -1.69709
rfemur 7.86508 -2.06436 18.9007
rtibia -7.95139e-015
rfoot -15.3029 -9.69354
rtoes -4.57679
lfemur -5.84572 -4.38489 -8.7635
ltibia 24.2178
lfoot -21.2803 10.3615
ltoes -56.4147
31
root -0.875345 18.6682 5.81861 0.866945 -1.34418 -4.70405
lowerback 7.27425 0.856055 2.38981
upperback -1.96725 1.44015 1.12606
thorax -6.10978 0.642622 -0.346372
lowerneck -12.3661 -2.02849 -1.20031
upperneck 26.3674 -3.36764 2.76649
head 10.5538 -1.33955 0.766182
rclavicle 4.79092e-015 -1.09332e-014
rhumerus -48.6449 -4.86354 -84.3236
rradius 42.4383
rwrist 18.9779
rhand -12.3626 -26.992
rfingers 7.12502
rthumb 13.7075 -56.5206
lclavicle 4.79092e-015 -1.09332e-014
lhumerus -43.9434 2.876 88.2387
lradius 39.3776
lwrist -12.1756
lhand -5.0953 -30.6485
lfingers 7.12502
lthumb 20.7018 -1.73263
rfemur 7.85664 -2.07037 18.9196
rtibia -1.74931e-014
rfoot -15.2963 -9.71277
rtoes -4.57473
lfemur -5.8797 -4.3593 -8.74347
ltibia 24.2514
lfoot -21.2726 10.3492
ltoes -56.4434
32
root -0.873361 18.668 5.81978 0.868073 -1.33482 -4.69518
lowerback 7.32552 0.855553 2.40591
upperback -1.96534 1.44232 1.11873
thorax -6.13648 0.642612 -0.364205
lowerneck -12.3806 -2.03825 -1.12076
upperneck 26.3672 -3.37243 2.66473
head 10.5533 -1.34569 0.715524
rclavicle 7.12441e-017 -1.41137e-014
rhumerus -48.6299 -4.81702 -84.3654
rradius 42.4612
rwrist 18.9232
rhand -12.4559 -26.9901
rfingers 7.12502
rthumb 13.6177 -56.5247
lclavicle 7.12441e-017 -1.41137e-014
lhumerus -43.9614 2.85338 88.2507
lradius 39.3946
lwrist -12.2308
lhand -5.09029 -30.6204
lfingers 7.12502
lthumb 20.7067 -1.70508
rfemur 7.86217 -2.0793 18.902
rtibia 1.59028e-015
rfoot -15.293 -9.71008
rtoes -4.60897
lfemur -5.89792 -4.39863 -8.76478
ltibia 24.282
lfoot -21.3009 10.3767
ltoes -56.4328
33
root -0.871101 18.6681 5.82198 0.863926 -1.33491 -4.68131
lowerback 7.3594 0.850728 2.41878
upperback -1.96638 1.43769 1.10804
thorax -6.15648 0.63937 -0.382612
lowerneck -12.3628 -2.04097 -1.07151
upperneck 26.3584 -3.36654 2.58748
head 10.5439 -1.34753 0.680458
rclavicle 1.39349e-014 7.95139e-015
rhumerus -48.6427 -4.78997 -84.3957
rradius 42.4907
rwrist 18.923
rhand -11.9861 -26.7258
rfingers 7.12502
rthumb 14.0704 -56.2295
lclavicle 1.39349e-014 7.95139e-015
lhumerus -43.9943 2.88897 88.23
lradius 39.3827
lwrist -12.2366
lhand -5.02996 -30.5801
lfingers 7.12502
lthumb 20.7646 -1.67113
rfemur 7.87603 -2.07873 18.8781
rtibia -1.43125e-014
rfoot -15.2806 -9.72653
rtoes -4.87345
lfemur -5.90123 -4.40543 -8.79558
ltibia 24.3062
lfoot -21.2931 10.4159
ltoes -56.4888
